<?xml version="1.0" standalone="no"?>
<!DOCTYPE svg PUBLIC "-//W3C//DTD SVG 20010904//EN"
 "http://www.w3.org/TR/2001/REC-SVG-20010904/DTD/svg10.dtd">
<svg version="1.0" xmlns="http://www.w3.org/2000/svg"
 width="800.000000pt" height="800.000000pt" viewBox="0 0 800.000000 800.000000"
 preserveAspectRatio="xMidYMid meet">
<metadata>
Created by potrace 1.14, written by Peter Selinger 2001-2017
</metadata>
<g transform="translate(0.000000,800.000000) scale(0.100000,-0.100000)"
fill="#000000" stroke="none">
<path d="M1167 6986 c-55 -20 -103 -61 -134 -114 l-28 -47 0 -2575 0 -2575 28
-47 c31 -53 79 -94 134 -114 56 -20 5610 -20 5666 0 55 20 103 61 134 114 l28
47 0 2575 0 2575 -28 47 c-31 53 -79 94 -134 114 -56 20 -5610 20 -5666 0z
m1488 -1189 l1010 -423 3 -295 2 -296 -1016 -427 c-559 -235 -1017 -426 -1019
-424 -11 12 -183 564 -177 569 4 4 337 134 739 290 403 156 731 284 730 285
-1 1 -330 129 -732 284 -401 155 -733 285 -737 289 -8 6 172 571 181 571 4 0
461 -191 1016 -423z m3845 -2662 l0 -285 -1285 0 -1285 0 0 285 0 285 1285 0
1285 0 0 -285z"/>
<path d="M753 1415 c3 -249 4 -263 28 -325 14 -36 37 -83 52 -105 l27 -40 0
237 0 236 -40 74 c-21 40 -46 98 -54 128 -15 52 -16 43 -13 -205z"/>
<path d="M7238 1635 c-8 -44 -70 -179 -87 -189 -8 -5 -11 -86 -11 -254 l0
-247 27 40 c15 22 38 69 52 105 22 60 24 81 29 295 2 127 2 244 0 260 -3 28
-4 28 -10 -10z"/>
</g>
</svg>
