<?xml version="1.0" standalone="no"?>
<!DOCTYPE svg PUBLIC "-//W3C//DTD SVG 20010904//EN"
 "http://www.w3.org/TR/2001/REC-SVG-20010904/DTD/svg10.dtd">
<svg version="1.0" xmlns="http://www.w3.org/2000/svg"
 width="800.000000pt" height="800.000000pt" viewBox="0 0 800.000000 800.000000"
 preserveAspectRatio="xMidYMid meet">
<metadata>
Created by potrace 1.14, written by Peter Selinger 2001-2017
</metadata>
<g transform="translate(0.000000,800.000000) scale(0.100000,-0.100000)"
fill="#000000" stroke="none">
<path d="M1138 7234 c-185 -44 -329 -189 -373 -376 -13 -55 -15 -431 -15
-2874 0 -2779 0 -2813 20 -2875 53 -171 186 -300 355 -344 53 -13 379 -15
2875 -15 2496 0 2822 2 2875 15 169 44 302 173 355 344 20 62 20 96 20 2875 0
3090 4 2869 -61 2998 -63 125 -207 231 -348 258 -36 7 -996 10 -2850 9 -2347
-1 -2805 -3 -2853 -15z m1057 -1309 l425 -230 -3 -115 -2 -114 -405 -238
c-223 -130 -417 -244 -432 -253 l-28 -16 0 143 0 144 305 164 c168 90 304 168
302 173 -1 4 -137 73 -302 151 l-300 143 -3 142 c-2 98 1 142 8 139 6 -2 202
-107 435 -233z m1675 -1300 l0 -125 -495 0 -495 0 0 125 0 125 495 0 495 0 0
-125z"/>
</g>
</svg>
