<?xml version="1.0" standalone="no"?>
<!DOCTYPE svg PUBLIC "-//W3C//DTD SVG 20010904//EN"
 "http://www.w3.org/TR/2001/REC-SVG-20010904/DTD/svg10.dtd">
<svg version="1.0" xmlns="http://www.w3.org/2000/svg"
 width="800.000000pt" height="800.000000pt" viewBox="0 0 800.000000 800.000000"
 preserveAspectRatio="xMidYMid meet">
<metadata>
Created by potrace 1.14, written by Peter Selinger 2001-2017
</metadata>
<g transform="translate(0.000000,800.000000) scale(0.100000,-0.100000)"
fill="#000000" stroke="none">
<path d="M1161 6983 c-59 -21 -124 -87 -144 -148 -16 -45 -17 -250 -17 -2585
0 -2846 -7 -2593 75 -2675 82 -82 -202 -75 2925 -75 3127 0 2843 -7 2925 75
82 82 75 -171 75 2675 0 2846 7 2593 -75 2675 -82 82 202 75 -2929 74 -2501 0
-2796 -2 -2835 -16z m1049 -1061 c217 -118 401 -219 408 -225 9 -7 12 -40 10
-120 l-3 -111 -430 -252 c-236 -139 -433 -253 -438 -254 -4 0 -6 66 -5 147 l3
147 298 160 c163 88 296 164 295 168 -2 5 -137 72 -301 150 l-297 142 0 148 0
149 33 -17 c17 -9 210 -114 427 -232z m1670 -1297 l0 -125 -505 0 -505 0 0
125 0 125 505 0 505 0 0 -125z"/>
<path d="M754 1450 c0 -113 2 -159 3 -102 2 56 2 148 0 205 -1 56 -3 10 -3
-103z"/>
<path d="M7244 1450 c0 -113 2 -159 3 -102 2 56 2 148 0 205 -1 56 -3 10 -3
-103z"/>
</g>
</svg>
